<svg xmlns="http://www.w3.org/2000/svg" viewBox="0 0 64 64" role="img" aria-label="React Native logo">
  <rect width="64" height="64" rx="16" fill="#0F172A"/>
  <path d="M24 20c-4.6 0-8.3 3.6-8.3 8.3v8.4c0 4.6 3.7 8.3 8.3 8.3h16c4.6 0 8.3-3.7 8.3-8.3v-8.4C48.3 23.6 44.6 20 40 20H24Zm2.4 5h11.2c1.5 0 2.8 1.3 2.8 2.8v.2c0 1.5-1.3 2.8-2.8 2.8H26.4c-1.5 0-2.8-1.3-2.8-2.8v-.2c0-1.5 1.3-2.8 2.8-2.8Zm11.2 15h-11.2c-1.5 0-2.8 1.3-2.8 2.8v.2c0 1.5 1.3 2.8 2.8 2.8h11.2c1.5 0 2.8-1.3 2.8-2.8v-.2c0-1.5-1.3-2.8-2.8-2.8Z" fill="#61DAFB"/>
</svg>