<svg xmlns="http://www.w3.org/2000/svg" viewBox="0 0 64 64" role="img" aria-label="WordPress logo">
  <rect width="64" height="64" rx="16" fill="#21759B"/>
  <path d="M32 14c9.9 0 18 8.1 18 18S41.9 50 32 50 14 41.9 14 32 22.1 14 32 14Zm0 5c-2.1 0-4 .5-5.7 1.4l8.5 22.8 5.1-14.5c-.4-.9-.7-1.9-.7-3 0-4.1 3.2-7.4 7.2-7.4 2.1 0 4 .9 5.3 2.5-1.3-1.8-3.2-3.3-5.8-4.1A16.6 16.6 0 0 0 32 19Zm-9.6 6.4c1.6-2.4 4.2-4 7.4-4 2.2 0 4.2.8 5.8 2.1l-1.2 2.1-4.6 8.7L22.4 25.4Zm11 25.9 7.8-22.7c1.4.8 2.6 1.9 3.5 3.3-1.7 2.2-3.4 4.4-4.9 7.8l-3.2 7.8c-1.1 2.6-2.1 4.8-2.9 6.8-1.2-.6-2.4-1.4-3.6-2.3l3.3-7.6Zm-8.6-1.1c.2-.4.5-.8.7-1.2l4.6-10.7-2.3-6.2c-2.4 2.8-3.9 6.4-4.2 10.1-.4 3.9.5 7.4 1.2 8Z" fill="#fff"/>
</svg>